<svg id="Слой_1" data-name="Слой 1" xmlns="http://www.w3.org/2000/svg" xmlns:xlink="http://www.w3.org/1999/xlink" viewBox="0 0 1920 1080"><defs><style>.cls-1{fill:none;}.cls-2{fill:#ffa0af;}.cls-3{clip-path:url(#clip-path);}.cls-4{fill:#e8748a;}</style><clipPath id="clip-path"><rect class="cls-1" width="1919.57" height="1080"/></clipPath></defs><title>Монтажная область 1</title><rect class="cls-2" x="0.43" y="0.16" width="1919.57" height="1079.63"/><g class="cls-3"><path class="cls-4" d="M166,1050.48H-3v-84H166Zm-166-3H163v-78H0Z"/><path class="cls-4" d="M331.93,1050.48H163v-84h169Zm-166-3h163v-78H166Z"/><path class="cls-4" d="M497.89,1050.48h-169v-84h169Zm-166-3h163v-78h-163Z"/><path class="cls-4" d="M663.85,1050.48h-169v-84h169Zm-166-3h163v-78h-163Z"/><path class="cls-4" d="M829.81,1050.48h-169v-84h169Zm-166-3h163v-78h-163Z"/><path class="cls-4" d="M995.78,1050.48h-169v-84h169Zm-166-3h163v-78h-163Z"/><path class="cls-4" d="M1161.74,1050.48h-169v-84h169Zm-166-3h163v-78h-163Z"/><path class="cls-4" d="M1327.7,1050.48h-169v-84h169Zm-166-3h163v-78h-163Z"/><path class="cls-4" d="M1493.67,1050.48h-169v-84h169Zm-166-3h163v-78h-163Z"/><path class="cls-4" d="M1659.63,1050.48h-169v-84h169Zm-166-3h163v-78h-163Z"/><path class="cls-4" d="M1825.59,1050.48h-169v-84h169Zm-166-3h163v-78h-163Z"/><path class="cls-4" d="M1991.55,1050.48h-169v-84h169Zm-166-3h163v-78h-163Z"/><path class="cls-4" d="M83,969.5H-86v-84H83Zm-166-3H80v-78H-83Z"/><path class="cls-4" d="M248.94,969.5H80v-84h169Zm-166-3h163v-78H83Z"/><path class="cls-4" d="M414.91,969.5h-169v-84h169Zm-166-3h163v-78h-163Z"/><path class="cls-4" d="M580.87,969.5h-169v-84h169Zm-166-3h163v-78h-163Z"/><path class="cls-4" d="M746.83,969.5h-169v-84h169Zm-166-3h163v-78h-163Z"/><path class="cls-4" d="M912.8,969.5h-169v-84h169Zm-166-3h163v-78h-163Z"/><path class="cls-4" d="M1078.76,969.5h-169v-84h169Zm-166-3h163v-78h-163Z"/><path class="cls-4" d="M1244.72,969.5h-169v-84h169Zm-166-3h163v-78h-163Z"/><path class="cls-4" d="M1410.68,969.5h-169v-84h169Zm-166-3h163v-78h-163Z"/><path class="cls-4" d="M1576.65,969.5h-169v-84h169Zm-166-3h163v-78h-163Z"/><path class="cls-4" d="M1742.61,969.5h-169v-84h169Zm-166-3h163v-78h-163Z"/><path class="cls-4" d="M1908.57,969.5h-169v-84h169Zm-166-3h163v-78h-163Z"/><path class="cls-4" d="M166,888.52H-3v-84H166Zm-166-3H163v-78H0Z"/><path class="cls-4" d="M331.93,888.52H163v-84h169Zm-166-3h163v-78H166Z"/><path class="cls-4" d="M497.89,888.52h-169v-84h169Zm-166-3h163v-78h-163Z"/><path class="cls-4" d="M663.85,888.52h-169v-84h169Zm-166-3h163v-78h-163Z"/><path class="cls-4" d="M829.81,888.52h-169v-84h169Zm-166-3h163v-78h-163Z"/><path class="cls-4" d="M995.78,888.52h-169v-84h169Zm-166-3h163v-78h-163Z"/><path class="cls-4" d="M1161.74,888.52h-169v-84h169Zm-166-3h163v-78h-163Z"/><path class="cls-4" d="M1327.7,888.52h-169v-84h169Zm-166-3h163v-78h-163Z"/><path class="cls-4" d="M1493.67,888.52h-169v-84h169Zm-166-3h163v-78h-163Z"/><path class="cls-4" d="M1659.63,888.52h-169v-84h169Zm-166-3h163v-78h-163Z"/><path class="cls-4" d="M1825.59,888.52h-169v-84h169Zm-166-3h163v-78h-163Z"/><path class="cls-4" d="M1991.55,888.52h-169v-84h169Zm-166-3h163v-78h-163Z"/><path class="cls-4" d="M83,807.54H-86v-84H83Zm-166-3H80v-78H-83Z"/><path class="cls-4" d="M248.94,807.54H80v-84h169Zm-166-3h163v-78H83Z"/><path class="cls-4" d="M414.91,807.54h-169v-84h169Zm-166-3h163v-78h-163Z"/><path class="cls-4" d="M580.87,807.54h-169v-84h169Zm-166-3h163v-78h-163Z"/><path class="cls-4" d="M746.83,807.54h-169v-84h169Zm-166-3h163v-78h-163Z"/><path class="cls-4" d="M912.8,807.54h-169v-84h169Zm-166-3h163v-78h-163Z"/><path class="cls-4" d="M1078.76,807.54h-169v-84h169Zm-166-3h163v-78h-163Z"/><path class="cls-4" d="M1244.72,807.54h-169v-84h169Zm-166-3h163v-78h-163Z"/><path class="cls-4" d="M1410.68,807.54h-169v-84h169Zm-166-3h163v-78h-163Z"/><path class="cls-4" d="M1576.65,807.54h-169v-84h169Zm-166-3h163v-78h-163Z"/><path class="cls-4" d="M1742.61,807.54h-169v-84h169Zm-166-3h163v-78h-163Z"/><path class="cls-4" d="M1908.57,807.54h-169v-84h169Zm-166-3h163v-78h-163Z"/><path class="cls-4" d="M166,726.56H-3v-84H166Zm-166-3H163v-78H0Z"/><path class="cls-4" d="M331.93,726.56H163v-84h169Zm-166-3h163v-78H166Z"/><path class="cls-4" d="M497.89,726.56h-169v-84h169Zm-166-3h163v-78h-163Z"/><path class="cls-4" d="M663.85,726.56h-169v-84h169Zm-166-3h163v-78h-163Z"/><path class="cls-4" d="M829.81,726.56h-169v-84h169Zm-166-3h163v-78h-163Z"/><path class="cls-4" d="M995.78,726.56h-169v-84h169Zm-166-3h163v-78h-163Z"/><path class="cls-4" d="M1161.74,726.56h-169v-84h169Zm-166-3h163v-78h-163Z"/><path class="cls-4" d="M1327.7,726.56h-169v-84h169Zm-166-3h163v-78h-163Z"/><path class="cls-4" d="M1493.67,726.56h-169v-84h169Zm-166-3h163v-78h-163Z"/><path class="cls-4" d="M1659.63,726.56h-169v-84h169Zm-166-3h163v-78h-163Z"/><path class="cls-4" d="M1825.59,726.56h-169v-84h169Zm-166-3h163v-78h-163Z"/><path class="cls-4" d="M1991.55,726.56h-169v-84h169Zm-166-3h163v-78h-163Z"/><path class="cls-4" d="M83,645.58H-86v-84H83Zm-166-3H80v-78H-83Z"/><path class="cls-4" d="M248.94,645.58H80v-84h169Zm-166-3h163v-78H83Z"/><path class="cls-4" d="M414.91,645.58h-169v-84h169Zm-166-3h163v-78h-163Z"/><path class="cls-4" d="M580.87,645.58h-169v-84h169Zm-166-3h163v-78h-163Z"/><path class="cls-4" d="M746.83,645.58h-169v-84h169Zm-166-3h163v-78h-163Z"/><path class="cls-4" d="M912.8,645.58h-169v-84h169Zm-166-3h163v-78h-163Z"/><path class="cls-4" d="M1078.76,645.58h-169v-84h169Zm-166-3h163v-78h-163Z"/><path class="cls-4" d="M1244.72,645.58h-169v-84h169Zm-166-3h163v-78h-163Z"/><path class="cls-4" d="M1410.68,645.58h-169v-84h169Zm-166-3h163v-78h-163Z"/><path class="cls-4" d="M1576.65,645.58h-169v-84h169Zm-166-3h163v-78h-163Z"/><path class="cls-4" d="M1742.61,645.58h-169v-84h169Zm-166-3h163v-78h-163Z"/><path class="cls-4" d="M1908.57,645.58h-169v-84h169Zm-166-3h163v-78h-163Z"/><path class="cls-4" d="M166,564.6H-3v-84H166Zm-166-3H163v-78H0Z"/><path class="cls-4" d="M331.93,564.6H163v-84h169Zm-166-3h163v-78H166Z"/><path class="cls-4" d="M497.89,564.6h-169v-84h169Zm-166-3h163v-78h-163Z"/><path class="cls-4" d="M663.85,564.6h-169v-84h169Zm-166-3h163v-78h-163Z"/><path class="cls-4" d="M829.81,564.6h-169v-84h169Zm-166-3h163v-78h-163Z"/><path class="cls-4" d="M995.78,564.6h-169v-84h169Zm-166-3h163v-78h-163Z"/><path class="cls-4" d="M1161.74,564.6h-169v-84h169Zm-166-3h163v-78h-163Z"/><path class="cls-4" d="M1327.7,564.6h-169v-84h169Zm-166-3h163v-78h-163Z"/><path class="cls-4" d="M1493.67,564.6h-169v-84h169Zm-166-3h163v-78h-163Z"/><path class="cls-4" d="M1659.63,564.6h-169v-84h169Zm-166-3h163v-78h-163Z"/><path class="cls-4" d="M1825.59,564.6h-169v-84h169Zm-166-3h163v-78h-163Z"/><path class="cls-4" d="M1991.55,564.6h-169v-84h169Zm-166-3h163v-78h-163Z"/><path class="cls-4" d="M83,483.62H-86v-84H83Zm-166-3H80v-78H-83Z"/><path class="cls-4" d="M248.94,483.62H80v-84h169Zm-166-3h163v-78H83Z"/><path class="cls-4" d="M414.91,483.62h-169v-84h169Zm-166-3h163v-78h-163Z"/><path class="cls-4" d="M580.87,483.62h-169v-84h169Zm-166-3h163v-78h-163Z"/><path class="cls-4" d="M746.83,483.62h-169v-84h169Zm-166-3h163v-78h-163Z"/><path class="cls-4" d="M912.8,483.62h-169v-84h169Zm-166-3h163v-78h-163Z"/><path class="cls-4" d="M1078.76,483.62h-169v-84h169Zm-166-3h163v-78h-163Z"/><path class="cls-4" d="M1244.72,483.62h-169v-84h169Zm-166-3h163v-78h-163Z"/><path class="cls-4" d="M1410.68,483.62h-169v-84h169Zm-166-3h163v-78h-163Z"/><path class="cls-4" d="M1576.65,483.62h-169v-84h169Zm-166-3h163v-78h-163Z"/><path class="cls-4" d="M1742.61,483.62h-169v-84h169Zm-166-3h163v-78h-163Z"/><path class="cls-4" d="M1908.57,483.62h-169v-84h169Zm-166-3h163v-78h-163Z"/><path class="cls-4" d="M166,402.63H-3v-84H166Zm-166-3H163v-78H0Z"/><path class="cls-4" d="M331.93,402.63H163v-84h169Zm-166-3h163v-78H166Z"/><path class="cls-4" d="M497.89,402.63h-169v-84h169Zm-166-3h163v-78h-163Z"/><path class="cls-4" d="M663.85,402.63h-169v-84h169Zm-166-3h163v-78h-163Z"/><path class="cls-4" d="M829.81,402.63h-169v-84h169Zm-166-3h163v-78h-163Z"/><path class="cls-4" d="M995.78,402.63h-169v-84h169Zm-166-3h163v-78h-163Z"/><path class="cls-4" d="M1161.74,402.63h-169v-84h169Zm-166-3h163v-78h-163Z"/><path class="cls-4" d="M1327.7,402.63h-169v-84h169Zm-166-3h163v-78h-163Z"/><path class="cls-4" d="M1493.67,402.63h-169v-84h169Zm-166-3h163v-78h-163Z"/><path class="cls-4" d="M1659.63,402.63h-169v-84h169Zm-166-3h163v-78h-163Z"/><path class="cls-4" d="M1825.59,402.63h-169v-84h169Zm-166-3h163v-78h-163Z"/><path class="cls-4" d="M1991.55,402.63h-169v-84h169Zm-166-3h163v-78h-163Z"/><path class="cls-4" d="M83,321.65H-86v-84H83Zm-166-3H80v-78H-83Z"/><path class="cls-4" d="M248.94,321.65H80v-84h169Zm-166-3h163v-78H83Z"/><path class="cls-4" d="M414.91,321.65h-169v-84h169Zm-166-3h163v-78h-163Z"/><path class="cls-4" d="M580.87,321.65h-169v-84h169Zm-166-3h163v-78h-163Z"/><path class="cls-4" d="M746.83,321.65h-169v-84h169Zm-166-3h163v-78h-163Z"/><path class="cls-4" d="M912.8,321.65h-169v-84h169Zm-166-3h163v-78h-163Z"/><path class="cls-4" d="M1078.76,321.65h-169v-84h169Zm-166-3h163v-78h-163Z"/><path class="cls-4" d="M1244.72,321.65h-169v-84h169Zm-166-3h163v-78h-163Z"/><path class="cls-4" d="M1410.68,321.65h-169v-84h169Zm-166-3h163v-78h-163Z"/><path class="cls-4" d="M1576.65,321.65h-169v-84h169Zm-166-3h163v-78h-163Z"/><path class="cls-4" d="M1742.61,321.65h-169v-84h169Zm-166-3h163v-78h-163Z"/><path class="cls-4" d="M1908.57,321.65h-169v-84h169Zm-166-3h163v-78h-163Z"/><path class="cls-4" d="M166,240.67H-3v-84H166Zm-166-3H163v-78H0Z"/><path class="cls-4" d="M331.93,240.67H163v-84h169Zm-166-3h163v-78H166Z"/><path class="cls-4" d="M497.89,240.67h-169v-84h169Zm-166-3h163v-78h-163Z"/><path class="cls-4" d="M663.85,240.67h-169v-84h169Zm-166-3h163v-78h-163Z"/><path class="cls-4" d="M829.81,240.67h-169v-84h169Zm-166-3h163v-78h-163Z"/><path class="cls-4" d="M995.78,240.67h-169v-84h169Zm-166-3h163v-78h-163Z"/><path class="cls-4" d="M1161.74,240.67h-169v-84h169Zm-166-3h163v-78h-163Z"/><path class="cls-4" d="M1327.7,240.67h-169v-84h169Zm-166-3h163v-78h-163Z"/><path class="cls-4" d="M1493.67,240.67h-169v-84h169Zm-166-3h163v-78h-163Z"/><path class="cls-4" d="M1659.63,240.67h-169v-84h169Zm-166-3h163v-78h-163Z"/><path class="cls-4" d="M1825.59,240.67h-169v-84h169Zm-166-3h163v-78h-163Z"/><path class="cls-4" d="M1991.55,240.67h-169v-84h169Zm-166-3h163v-78h-163Z"/><path class="cls-4" d="M83,159.69H-86v-84H83Zm-166-3H80v-78H-83Z"/><path class="cls-4" d="M248.94,159.69H80v-84h169Zm-166-3h163v-78H83Z"/><path class="cls-4" d="M414.91,159.69h-169v-84h169Zm-166-3h163v-78h-163Z"/><path class="cls-4" d="M580.87,159.69h-169v-84h169Zm-166-3h163v-78h-163Z"/><path class="cls-4" d="M746.83,159.69h-169v-84h169Zm-166-3h163v-78h-163Z"/><path class="cls-4" d="M912.8,159.69h-169v-84h169Zm-166-3h163v-78h-163Z"/><path class="cls-4" d="M1078.76,159.69h-169v-84h169Zm-166-3h163v-78h-163Z"/><path class="cls-4" d="M1244.72,159.69h-169v-84h169Zm-166-3h163v-78h-163Z"/><path class="cls-4" d="M1410.68,159.69h-169v-84h169Zm-166-3h163v-78h-163Z"/><path class="cls-4" d="M1576.65,159.69h-169v-84h169Zm-166-3h163v-78h-163Z"/><path class="cls-4" d="M1742.61,159.69h-169v-84h169Zm-166-3h163v-78h-163Z"/><path class="cls-4" d="M1908.57,159.69h-169v-84h169Zm-166-3h163v-78h-163Z"/><path class="cls-4" d="M166,78.71H-3v-84H166Zm-166-3H163v-78H0Z"/><path class="cls-4" d="M331.93,78.71H163v-84h169Zm-166-3h163v-78H166Z"/><path class="cls-4" d="M497.89,78.71h-169v-84h169Zm-166-3h163v-78h-163Z"/><path class="cls-4" d="M663.85,78.71h-169v-84h169Zm-166-3h163v-78h-163Z"/><path class="cls-4" d="M829.81,78.71h-169v-84h169Zm-166-3h163v-78h-163Z"/><path class="cls-4" d="M995.78,78.71h-169v-84h169Zm-166-3h163v-78h-163Z"/><path class="cls-4" d="M1161.74,78.71h-169v-84h169Zm-166-3h163v-78h-163Z"/><path class="cls-4" d="M1327.7,78.71h-169v-84h169Zm-166-3h163v-78h-163Z"/><path class="cls-4" d="M1493.67,78.71h-169v-84h169Zm-166-3h163v-78h-163Z"/><path class="cls-4" d="M1659.63,78.71h-169v-84h169Zm-166-3h163v-78h-163Z"/><path class="cls-4" d="M1825.59,78.71h-169v-84h169Zm-166-3h163v-78h-163Z"/><path class="cls-4" d="M1991.55,78.71h-169v-84h169Zm-166-3h163v-78h-163Z"/></g></svg>